<svg width="57" height="57" viewBox="0 0 57 57" fill="none" xmlns="http://www.w3.org/2000/svg">
<g id="Frame 2">
<mask id="mask0_399_1039" style="mask-type:alpha" maskUnits="userSpaceOnUse" x="0" y="0" width="57" height="57">
<rect id="Bounding box" width="57" height="57" fill="#D9D9D9"/>
</mask>
<g mask="url(#mask0_399_1039)">
<path id="school" d="M28.2615 50.3144L28.5 50.4439L28.7385 50.3144L45.3635 41.2894L45.625 41.1475V40.85V26.8956L49.375 24.8331V40.375V40.875H49.875H54.625H55.125V40.375V21.375V21.0782L54.8644 20.9361L28.7394 6.68605L28.5 6.55546L28.2606 6.68605L2.13557 20.9361L1.33417 21.3732L2.13404 21.8131L11.375 26.8956V40.85V41.1475L11.6365 41.2894L28.2615 50.3144ZM17.125 29.9394L28.259 36.0631L28.5 36.1956L28.741 36.0631L39.875 29.9394V37.7611L28.5 43.9036L17.125 37.7611V29.9394ZM28.5 13.1558L43.7167 21.375L28.5 29.5942L13.2833 21.375L28.5 13.1558Z" fill="#F42E30" stroke="black"/>
</g>
</g>
</svg>
