<svg width="21" height="20" viewBox="0 0 21 20" fill="none" xmlns="http://www.w3.org/2000/svg">
<g id="SVG" clip-path="url(#clip0_407_1548)">
<path id="Vector" fill-rule="evenodd" clip-rule="evenodd" d="M10.4748 1.448C5.93184 1.448 2.23584 5.014 2.23584 9.398C2.23584 13.784 5.93184 17.351 10.4758 17.351C15.0168 17.351 18.7128 13.784 18.7128 9.399C18.7128 5.014 15.0168 1.448 10.4748 1.448ZM10.4748 18.798C5.10484 18.798 0.73584 14.582 0.73584 9.398C0.73584 4.217 5.10584 0 10.4758 0C15.8458 0 20.2128 4.216 20.2128 9.399C20.2128 14.582 15.8448 18.798 10.4748 18.798Z" fill="#352F2F"/>
<g id="Mask group">
<mask id="mask0_407_1548" style="mask-type:luminance" maskUnits="userSpaceOnUse" x="15" y="15" width="6" height="5">
<g id="Group">
<path id="Vector_2" fill-rule="evenodd" clip-rule="evenodd" d="M15.9771 15.1599H21.0001V19.9999H15.9761V15.1599H15.9771Z" fill="white"/>
</g>
</mask>
<g mask="url(#mask0_407_1548)">
<g id="Group_2">
<path id="Vector_3" fill-rule="evenodd" clip-rule="evenodd" d="M20.25 19.9998C20.0527 20.0005 19.8628 19.9249 19.72 19.7888L16.197 16.3968C16.1274 16.3309 16.072 16.2516 16.0341 16.1636C15.9962 16.0756 15.9767 15.9808 15.9766 15.885C15.9765 15.7893 15.9959 15.6944 16.0336 15.6064C16.0713 15.5183 16.1266 15.4389 16.196 15.3728C16.3388 15.2368 16.5283 15.1608 16.7256 15.1604C16.9228 15.16 17.1126 15.2354 17.256 15.3708L20.781 18.7638C20.8505 18.8296 20.906 18.9089 20.9438 18.9969C20.9817 19.0848 21.0012 19.1796 21.0012 19.2753C21.0012 19.3711 20.9817 19.4658 20.9438 19.5538C20.906 19.6417 20.8505 19.721 20.781 19.7868C20.6389 19.9243 20.4477 20.0008 20.25 19.9998Z" fill="#352F2F"/>
</g>
</g>
</g>
</g>
<defs>
<clipPath id="clip0_407_1548">
<rect width="21" height="20" fill="white"/>
</clipPath>
</defs>
</svg>
