<svg width="45" height="46" viewBox="0 0 45 46" fill="none" xmlns="http://www.w3.org/2000/svg">
<g clip-path="url(#clip0_374_2278)">
<path d="M22.521 19.5979C23.0298 19.5979 23.5336 19.4971 24.0032 19.3013C24.4729 19.1056 24.8991 18.8187 25.2572 18.4573C25.6154 18.0959 25.8984 17.6671 26.0899 17.1957C26.2814 16.7243 26.3776 16.2196 26.373 15.7109C26.3743 15.2021 26.275 14.6981 26.0809 14.2278C25.8868 13.7576 25.6016 13.3304 25.2417 12.9707C24.8819 12.611 24.4545 12.3261 23.9841 12.1322C23.5138 11.9383 23.0097 11.8393 22.501 11.8409C21.9876 11.8387 21.479 11.9388 21.0047 12.1353C20.5305 12.3318 20.1001 12.6208 19.7387 12.9854C19.3774 13.3501 19.0922 13.783 18.9 14.259C18.7077 14.735 18.6122 15.2445 18.619 15.7579C18.6216 16.2666 18.7248 16.7699 18.9225 17.2386C19.1203 17.7074 19.4088 18.1324 19.7715 18.4893C20.1341 18.8462 20.5637 19.1278 21.0356 19.3181C21.5074 19.5083 22.0122 19.6034 22.521 19.5979Z" fill="#352F2F"/>
<path d="M22.5 0.949951C10.074 0.949951 0 11.024 0 23.45C0 35.8759 10.074 45.95 22.5 45.95C34.926 45.95 45 35.8759 45 23.45C45 11.024 34.926 0.949951 22.5 0.949951ZM22.532 7.79195C26.915 7.80395 30.432 11.389 30.41 15.82C30.388 20.149 26.813 23.6569 22.437 23.642C18.107 23.628 14.555 20.037 14.581 15.7C14.605 11.315 18.159 7.77995 22.532 7.79195ZM31.409 26.756C30.439 27.751 29.273 28.471 27.978 28.973C26.753 29.448 25.411 29.687 24.083 29.846C24.283 30.064 24.378 30.172 24.503 30.296C26.306 32.109 28.118 33.9129 29.915 35.7299C30.527 36.3499 30.655 37.118 30.317 37.837C29.95 38.624 29.124 39.142 28.314 39.087C27.802 39.051 27.401 38.796 27.047 38.438C25.686 37.069 24.299 35.725 22.967 34.33C22.577 33.924 22.392 34 22.049 34.354C20.6778 35.761 19.2914 37.153 17.89 38.53C17.262 39.15 16.514 39.262 15.785 38.907C15.01 38.533 14.517 37.741 14.555 36.945C14.582 36.409 14.846 35.997 15.215 35.63C17 33.849 18.779 32.062 20.559 30.277C20.677 30.158 20.787 30.033 20.959 29.848C18.531 29.595 16.342 28.998 14.469 27.532C14.235 27.35 13.995 27.174 13.784 26.969C12.963 26.1819 12.88 25.279 13.529 24.35C14.085 23.555 15.016 23.342 15.986 23.799C16.173 23.887 16.352 23.999 16.523 24.116C20.015 26.516 24.813 26.582 28.319 24.223C28.667 23.958 29.038 23.74 29.469 23.63C30.304 23.415 31.085 23.7229 31.534 24.455C32.047 25.291 32.041 26.107 31.409 26.756Z" fill="#352F2F"/>
</g>
<defs>
<clipPath id="clip0_374_2278">
<rect width="45" height="45" fill="white" transform="translate(0 0.949951)"/>
</clipPath>
</defs>
</svg>
