<svg width="45" height="46" viewBox="0 0 45 46" fill="none" xmlns="http://www.w3.org/2000/svg">
<g clip-path="url(#clip0_374_2283)">
<path fill-rule="evenodd" clip-rule="evenodd" d="M45 23.45C45 35.8759 34.926 45.95 22.5 45.95C10.074 45.95 0 35.8759 0 23.45C0 11.024 10.074 0.949951 22.5 0.949951C34.926 0.949951 45 11.024 45 23.45ZM15.067 21.389C12.813 22.3729 10.497 23.384 8.38 24.551C7.274 25.361 8.743 25.933 10.122 26.471C10.342 26.556 10.558 26.64 10.762 26.724L11.279 26.887C12.813 27.376 14.523 27.9209 16.011 27.101C18.457 25.6959 20.765 24.072 23.071 22.449C23.826 21.918 24.581 21.386 25.341 20.862L25.461 20.785C26.109 20.365 27.565 19.4209 27.026 20.722C25.753 22.115 24.389 23.3479 23.017 24.587C22.093 25.423 21.165 26.261 20.259 27.154C19.471 27.794 18.651 29.084 19.535 29.981C21.569 31.405 23.635 32.794 25.7 34.183C26.372 34.635 27.044 35.087 27.714 35.54C28.851 36.447 30.627 35.713 30.877 34.295C30.987 33.643 31.099 32.991 31.211 32.339C31.827 28.735 32.444 25.129 32.989 21.513C33.063 20.945 33.147 20.378 33.231 19.811C33.434 18.435 33.638 17.058 33.701 15.675C33.538 14.295 31.864 14.599 30.933 14.909C26.147 16.73 21.409 18.687 16.689 20.677C16.155 20.9139 15.613 21.1509 15.067 21.389Z" fill="#352F2F"/>
</g>
<defs>
<clipPath id="clip0_374_2283">
<rect width="45" height="45" fill="white" transform="translate(0 0.949951)"/>
</clipPath>
</defs>
</svg>
