<svg width="45" height="46" viewBox="0 0 45 46" fill="none" xmlns="http://www.w3.org/2000/svg">
<g clip-path="url(#clip0_374_2281)">
<path fill-rule="evenodd" clip-rule="evenodd" d="M0 23.45C0 11.024 10.074 0.949951 22.5 0.949951C34.926 0.949951 45 11.024 45 23.45C45 35.8759 34.926 45.95 22.5 45.95C10.074 45.95 0 35.8759 0 23.45ZM23.677 30.834C23.677 30.834 24.11 30.787 24.332 30.553C24.535 30.338 24.528 29.933 24.528 29.933C24.528 29.933 24.501 28.045 25.394 27.767C26.274 27.492 27.405 29.593 28.604 30.401C29.511 31.011 30.199 30.878 30.199 30.878L33.405 30.834C33.405 30.834 35.081 30.732 34.286 29.438C34.22 29.333 33.822 28.481 31.903 26.732C29.893 24.901 30.163 25.197 32.583 22.03C34.057 20.1 34.647 18.923 34.463 18.42C34.287 17.938 33.203 18.066 33.203 18.066L29.594 18.088C29.594 18.088 29.327 18.052 29.128 18.168C28.935 18.282 28.809 18.548 28.809 18.548C28.809 18.548 28.239 20.041 27.477 21.311C25.87 23.988 25.227 24.131 24.965 23.964C24.353 23.576 24.505 22.406 24.505 21.576C24.505 18.9799 24.907 17.898 23.725 17.618C23.333 17.524 23.045 17.463 22.041 17.453C20.753 17.44 19.664 17.458 19.046 17.753C18.636 17.951 18.318 18.391 18.512 18.416C18.75 18.447 19.29 18.559 19.577 18.942C19.947 19.436 19.934 20.544 19.934 20.544C19.934 20.544 20.146 23.6 19.437 23.979C18.951 24.239 18.284 23.709 16.851 21.279C16.118 20.034 15.563 18.659 15.563 18.659C15.563 18.659 15.457 18.401 15.265 18.263C15.034 18.096 14.711 18.044 14.711 18.044L11.282 18.066C11.282 18.066 10.767 18.08 10.578 18.3C10.41 18.494 10.565 18.899 10.565 18.899C10.565 18.899 13.25 25.065 16.29 28.172C19.078 31.02 22.243 30.834 22.243 30.834H23.677Z" fill="#352F2F"/>
</g>
<defs>
<clipPath id="clip0_374_2281">
<rect width="45" height="45" fill="white" transform="translate(0 0.949951)"/>
</clipPath>
</defs>
</svg>
