<svg width="90" height="90" viewBox="0 0 90 90" fill="none" xmlns="http://www.w3.org/2000/svg">
<mask id="mask0_488_936" style="mask-type:alpha" maskUnits="userSpaceOnUse" x="0" y="0" width="90" height="90">
<rect width="90" height="90" fill="white"/>
</mask>
<g mask="url(#mask0_488_936)">
<path d="M41.25 63.75H48.75V48.75H63.75V41.25H48.75V26.25H41.25V41.25H26.25V48.75H41.25V63.75ZM18.75 78.75C16.6875 78.75 14.9219 78.0156 13.4531 76.5469C11.9844 75.0781 11.25 73.3125 11.25 71.25V18.75C11.25 16.6875 11.9844 14.9219 13.4531 13.4531C14.9219 11.9844 16.6875 11.25 18.75 11.25H71.25C73.3125 11.25 75.0781 11.9844 76.5469 13.4531C78.0156 14.9219 78.75 16.6875 78.75 18.75V71.25C78.75 73.3125 78.0156 75.0781 76.5469 76.5469C75.0781 78.0156 73.3125 78.75 71.25 78.75H18.75ZM18.75 71.25H71.25V18.75H18.75V71.25Z" fill="white"/>
</g>
</svg>
