<svg width="76" height="76" viewBox="0 0 76 76" fill="none" xmlns="http://www.w3.org/2000/svg">
<g id="add_box">
<mask id="mask0_492_1254" style="mask-type:alpha" maskUnits="userSpaceOnUse" x="0" y="0" width="76" height="76">
<rect id="Bounding box" width="76" height="76" fill="#352F2F"/>
</mask>
<g mask="url(#mask0_492_1254)">
<path id="add_box_2" d="M34.8333 53.8333H41.1667V41.1667H53.8333V34.8333H41.1667V22.1667H34.8333V34.8333H22.1667V41.1667H34.8333V53.8333ZM15.8333 66.5C14.0917 66.5 12.6007 65.8799 11.3604 64.6396C10.1201 63.3993 9.5 61.9083 9.5 60.1667V15.8333C9.5 14.0917 10.1201 12.6007 11.3604 11.3604C12.6007 10.1201 14.0917 9.5 15.8333 9.5H60.1667C61.9083 9.5 63.3993 10.1201 64.6396 11.3604C65.8799 12.6007 66.5 14.0917 66.5 15.8333V60.1667C66.5 61.9083 65.8799 63.3993 64.6396 64.6396C63.3993 65.8799 61.9083 66.5 60.1667 66.5H15.8333ZM15.8333 60.1667H60.1667V15.8333H15.8333V60.1667Z" fill="#352F2F"/>
</g>
</g>
</svg>
