<svg width="36" height="32" viewBox="0 0 36 32" fill="none" xmlns="http://www.w3.org/2000/svg">
<path d="M28.9078 31.9353C26.9174 31.9353 25.2351 31.2337 23.8608 29.8305C22.4865 28.4272 21.7993 26.7095 21.7993 24.6773C21.7993 22.645 22.4865 20.9273 23.8608 19.5241C25.2351 18.1209 26.9174 17.4192 28.9078 17.4192C30.8982 17.4192 32.5805 18.1209 33.9548 19.5241C35.3292 20.9273 36.0163 22.645 36.0163 24.6773C36.0163 26.7095 35.3292 28.4272 33.9548 29.8305C32.5805 31.2337 30.8982 31.9353 28.9078 31.9353ZM28.9078 28.0643C29.824 28.0643 30.606 27.7337 31.2536 27.0724C31.9013 26.4111 32.2251 25.6127 32.2251 24.6773C32.2251 23.7418 31.9013 22.9434 31.2536 22.2821C30.606 21.6208 29.824 21.2902 28.9078 21.2902C27.9916 21.2902 27.2097 21.6208 26.562 22.2821C25.9144 22.9434 25.5905 23.7418 25.5905 24.6773C25.5905 25.6127 25.9144 26.4111 26.562 27.0724C27.2097 27.7337 27.9916 28.0643 28.9078 28.0643ZM2.84339 26.6127V22.7418H18.0082V26.6127H2.84339ZM7.10848 14.516C5.11811 14.516 3.43577 13.8144 2.06146 12.4112C0.687153 11.008 0 9.29027 0 7.25802C0 5.22577 0.687153 3.50804 2.06146 2.10483C3.43577 0.701609 5.11811 0 7.10848 0C9.09886 0 10.7812 0.701609 12.1555 2.10483C13.5298 3.50804 14.217 5.22577 14.217 7.25802C14.217 9.29027 13.5298 11.008 12.1555 12.4112C10.7812 13.8144 9.09886 14.516 7.10848 14.516ZM7.10848 10.6451C8.02468 10.6451 8.80662 10.3145 9.45428 9.65317C10.1019 8.99188 10.4258 8.1935 10.4258 7.25802C10.4258 6.32254 10.1019 5.52416 9.45428 4.86287C8.80662 4.20159 8.02468 3.87094 7.10848 3.87094C6.19228 3.87094 5.41034 4.20159 4.76268 4.86287C4.11502 5.52416 3.79119 6.32254 3.79119 7.25802C3.79119 8.1935 4.11502 8.99188 4.76268 9.65317C5.41034 10.3145 6.19228 10.6451 7.10848 10.6451ZM18.0082 9.19349V5.32255H33.1729V9.19349H18.0082Z" fill="white"/>
</svg>
