<svg width="122" height="196" viewBox="0 0 122 196" fill="none" xmlns="http://www.w3.org/2000/svg">
<g id="Group 1413">
<path id="Union" fill-rule="evenodd" clip-rule="evenodd" d="M83.9871 97.5552C101.136 89.1575 112.93 71.6566 112.93 51.4278C112.93 23.025 89.6798 0 60.9998 0C32.3197 0 9.06993 23.025 9.06993 51.4278C9.06993 71.6567 20.8635 89.1578 38.0128 97.5554L0 196H122L83.9871 97.5552Z" fill="#D9D9D9"/>
<g id="Group 1412">
<path id="Ellipse 227" d="M102.392 52.8858C102.392 52.8858 83.9062 70.8715 61.1024 70.8715C38.2986 70.8715 19.8125 52.8858 19.8125 52.8858C19.8125 52.8858 38.2986 34.9 61.1024 34.9C83.9062 34.9 102.392 52.8858 102.392 52.8858Z" fill="white"/>
<ellipse id="Ellipse 228" cx="61.102" cy="52.8857" rx="14.2807" ry="14.1426" fill="black"/>
</g>
</g>
</svg>
