<svg width="1919" height="119" viewBox="0 0 1919 119" fill="none" xmlns="http://www.w3.org/2000/svg">
<path d="M379.529 63.9625H12C5.37258 63.9625 0 58.5899 0 51.9625V0H1919V44.9625C1919 55.4559 1910.49 63.9625 1900 63.9625H1787.24C1776.75 63.9625 1768.24 72.4691 1768.24 82.9625V100C1768.24 110.493 1759.73 119 1749.24 119H1389.29C1382.66 119 1377.29 113.627 1377.29 107V48C1377.29 41.3726 1371.91 36 1365.29 36H407.491C399.77 36 393.51 42.2596 393.51 49.9812C393.51 57.7029 387.25 63.9625 379.529 63.9625Z" fill="#8269EF"/>
</svg>
