<svg width="1920" height="82" viewBox="0 0 1920 82" fill="none" xmlns="http://www.w3.org/2000/svg">
<path d="M196.091 35.6162H19C8.50659 35.6162 0 44.1228 0 54.6162V82H1920V46.798V30.596C1920 20.1025 1911.49 11.596 1901 11.596H1889H1442.45C1431.95 11.596 1423.45 20.1531 1423.45 30.6465C1423.45 41.1399 1414.94 49.697 1404.45 49.697H640.326C629.833 49.697 621.326 41.1904 621.326 30.697V19C621.326 8.50659 612.82 0 602.326 0H231.707C221.872 0 213.899 7.97295 213.899 17.8081C213.899 27.6432 205.926 35.6162 196.091 35.6162Z" fill="#8269EF"/>
</svg>
