<svg width="50" height="50" viewBox="0 0 50 50" fill="none" xmlns="http://www.w3.org/2000/svg">
<g id="edit_square">
<mask id="mask0_488_928" style="mask-type:alpha" maskUnits="userSpaceOnUse" x="0" y="0" width="50" height="50">
<rect id="Bounding box" width="50" height="50" fill="white"/>
</mask>
<g mask="url(#mask0_488_928)">
<path id="edit_square_2" d="M10.4167 43.75C9.27083 43.75 8.28993 43.342 7.47396 42.526C6.65799 41.7101 6.25 40.7292 6.25 39.5833V10.4167C6.25 9.27083 6.65799 8.28993 7.47396 7.47396C8.28993 6.65799 9.27083 6.25 10.4167 6.25H29.0104L24.8438 10.4167H10.4167V39.5833H39.5833V25.1042L43.75 20.9375V39.5833C43.75 40.7292 43.342 41.7101 42.526 42.526C41.7101 43.342 40.7292 43.75 39.5833 43.75H10.4167ZM18.75 31.25V22.3958L37.8646 3.28125C38.2813 2.86458 38.75 2.55208 39.2708 2.34375C39.7917 2.13542 40.3125 2.03125 40.8333 2.03125C41.3889 2.03125 41.9184 2.13542 42.4219 2.34375C42.9254 2.55208 43.3854 2.86458 43.8021 3.28125L46.7188 6.25C47.1007 6.66667 47.3958 7.12674 47.6042 7.63021C47.8125 8.13368 47.9167 8.64583 47.9167 9.16667C47.9167 9.6875 47.8212 10.1997 47.6302 10.7031C47.4392 11.2066 47.1354 11.6667 46.7188 12.0833L27.6042 31.25H18.75ZM22.9167 27.0833H25.8333L37.9167 15L36.4583 13.5417L34.9479 12.0833L22.9167 24.1146V27.0833Z" fill="#F42E30"/>
</g>
</g>
</svg>
