<svg width="45" height="46" viewBox="0 0 45 46" fill="none" xmlns="http://www.w3.org/2000/svg">
<g clip-path="url(#clip0_374_2285)">
<path fill-rule="evenodd" clip-rule="evenodd" d="M3.87 34.34L0 45.95L12.6 42.635C15.7713 44.3068 19.303 45.1787 22.888 45.1749C35.1 45.174 45 35.274 45 23.061C45 10.85 35.1 0.949951 22.888 0.949951C10.676 0.949951 0.776 10.85 0.776 23.062C0.776 27.184 1.906 31.037 3.87 34.34ZM32.21 26.285C32.21 26.285 35.974 28.492 36.995 30.421C37.43 31.241 37.279 32.249 36.622 32.907L35.258 34.271C30.931 38.5979 26.046 36.4669 21.719 32.141L17.765 28.186L13.81 24.231C9.483 19.904 7.353 15.02 11.68 10.693L13.044 9.32895C13.3638 9.0091 13.7777 8.80018 14.2249 8.73287C14.6722 8.66555 15.1292 8.74339 15.529 8.95495C17.459 9.97495 19.665 13.741 19.665 13.741C20.151 14.593 20.205 15.62 19.339 16.106C19.339 16.106 17.872 17.33 17.661 17.641C16.698 19.063 16.735 20.379 18.064 21.708L21.154 24.797L24.242 27.886C25.571 29.215 26.887 29.252 28.309 28.289C28.62 28.078 29.843 26.611 29.843 26.611C30.329 25.745 31.358 25.799 32.21 26.285Z" fill="#352F2F"/>
</g>
<defs>
<clipPath id="clip0_374_2285">
<rect width="45" height="45" fill="white" transform="translate(0 0.949951)"/>
</clipPath>
</defs>
</svg>
